<?xml version="1.0" standalone="no"?>
<!DOCTYPE svg PUBLIC "-//W3C//DTD SVG 20010904//EN"
 "http://www.w3.org/TR/2001/REC-SVG-20010904/DTD/svg10.dtd">
<svg version="1.0" xmlns="http://www.w3.org/2000/svg"
 width="600.000000pt" height="600.000000pt" viewBox="0 0 600.000000 600.000000"
 preserveAspectRatio="xMidYMid meet">

<g transform="translate(0.000000,600.000000) scale(0.100000,-0.100000)"
fill="#000000" stroke="none">
<path d="M3211 3639 c-138 -24 -353 -114 -724 -301 -179 -90 -222 -102 -222
-63 0 28 -31 30 -199 11 -78 -9 -232 -25 -344 -36 -112 -11 -248 -29 -303 -40
-221 -43 -475 -154 -607 -266 -42 -36 -65 -77 -50 -92 5 -5 11 -34 13 -64 1
-30 6 -65 10 -77 6 -18 -1 -31 -30 -61 -32 -32 -35 -41 -26 -58 9 -18 8 -23
-9 -32 -31 -16 -24 -29 25 -51 46 -21 203 -39 337 -39 90 0 264 -49 309 -87
24 -20 273 -18 330 3 24 8 102 29 172 45 l128 29 722 10 c397 5 871 15 1052
21 394 14 426 12 492 -40 92 -73 117 -81 263 -81 l130 0 84 84 85 83 108 17
c167 25 176 29 207 84 14 26 40 64 57 84 24 28 35 56 49 125 30 147 34 197 17
229 -8 16 -18 52 -22 79 -4 28 -13 76 -21 108 -13 51 -13 60 1 80 8 12 15 39
15 60 l0 39 -227 -7 -228 -7 -225 55 c-328 81 -540 120 -795 147 -141 15 -509
21 -574 9z m-1946 -508 c-6 -5 -53 -34 -105 -64 -93 -54 -198 -93 -223 -84 -6
2 8 10 33 16 25 7 78 32 118 57 40 24 78 44 85 44 7 0 28 9 47 19 38 21 60 27
45 12z"/>
</g>
</svg>
