<?xml version="1.0" standalone="no"?>
<!DOCTYPE svg PUBLIC "-//W3C//DTD SVG 20010904//EN"
 "http://www.w3.org/TR/2001/REC-SVG-20010904/DTD/svg10.dtd">
<svg version="1.0" xmlns="http://www.w3.org/2000/svg"
 width="900.000000pt" height="440.000000pt" viewBox="0 0 900.000000 440.000000"
 preserveAspectRatio="xMidYMid meet">

<g transform="translate(0.000000,440.000000) scale(0.100000,-0.100000)"
fill="#000000" stroke="none">
<path d="M6412 4333 c-32 -122 -103 -228 -191 -285 -25 -15 -40 -28 -34 -28
15 0 93 59 121 91 13 16 28 27 33 24 18 -12 95 191 87 232 -2 9 -9 -6 -16 -34z
m-59 -178 c-3 -9 -8 -14 -10 -11 -3 3 -2 9 2 15 9 16 15 13 8 -4z"/>
<path d="M5220 4174 c-83 -57 -281 -155 -385 -191 -87 -30 -141 -32 -535 -22
-154 4 -168 3 -213 -18 -57 -27 -135 -98 -192 -175 -24 -31 -46 -54 -50 -50
-4 4 -6 3 -4 -3 4 -18 -21 -66 -31 -60 -5 3 -10 8 -10 11 0 3 5 2 12 -2 7 -4
8 -3 4 4 -5 8 -13 9 -25 2 -10 -5 -22 -6 -26 -2 -5 4 -5 2 -2 -4 4 -7 -3 -23
-14 -38 -19 -25 -15 -32 14 -27 5 1 6 -3 2 -8 -3 -6 -12 -8 -19 -5 -9 3 -16
-5 -20 -22 -4 -14 -10 -24 -13 -20 -3 3 -12 -6 -20 -20 -11 -22 -11 -30 -1
-42 11 -13 11 -14 0 -8 -9 5 -24 -3 -45 -25 -18 -18 -26 -29 -19 -25 6 4 12 2
12 -3 0 -11 -13 -15 -37 -12 -8 1 -10 -5 -6 -14 4 -11 -6 -26 -30 -46 -24 -20
-35 -36 -32 -49 2 -12 0 -18 -5 -15 -4 3 -15 -1 -23 -9 -8 -8 -17 -12 -21 -9
-3 4 -6 1 -6 -5 0 -6 -31 -20 -69 -32 -118 -35 -263 -51 -464 -52 l-187 -1 90
-46 c291 -150 540 -402 688 -697 92 -184 144 -367 163 -579 6 -66 15 -134 20
-151 5 -17 9 -40 9 -52 0 -18 9 -13 58 36 70 68 140 105 198 105 53 0 104 -25
274 -138 202 -134 289 -165 398 -145 80 15 148 49 318 161 196 129 283 163
499 192 17 3 1 3 -35 1 -84 -5 -208 -36 -286 -73 -33 -16 -110 -61 -170 -101
-60 -40 -138 -89 -174 -108 -65 -34 -65 -34 -40 -7 l25 28 -27 -17 c-25 -17
-27 -17 -37 2 -11 20 -6 32 13 32 6 0 4 -5 -4 -10 -11 -7 -11 -10 -2 -10 7 0
10 -5 6 -12 -4 -7 -3 -8 5 -4 6 4 9 12 6 17 -4 5 0 9 7 9 7 0 2 7 -10 16 -26
18 -22 29 15 39 15 3 108 47 205 96 98 49 204 97 236 106 39 11 122 18 262 23
l205 6 -178 2 c-248 3 -287 -6 -513 -118 -201 -99 -281 -126 -353 -115 -135
20 -254 132 -267 251 -6 56 6 78 71 136 68 60 121 83 196 83 64 0 74 -4 226
-81 97 -50 183 -87 219 -94 120 -25 237 6 414 110 93 54 95 64 6 25 -87 -39
-194 -65 -264 -66 -84 -1 -168 39 -330 159 -67 50 -138 96 -158 102 -56 19
-161 8 -230 -24 -45 -21 -82 -51 -155 -126 -65 -67 -112 -106 -149 -124 -29
-14 -56 -24 -58 -21 -3 3 0 5 7 5 7 0 9 5 5 12 -4 6 -3 8 3 5 11 -7 28 22 18
31 -3 3 -5 0 -5 -7 0 -7 -4 -9 -10 -6 -5 3 -24 -2 -42 -11 -31 -16 -32 -17
-10 -25 30 -11 28 -16 -8 -14 -17 1 -27 -2 -23 -8 10 -17 -92 0 -135 22 -51
26 -119 103 -132 150 -33 121 31 235 172 306 92 46 150 47 274 5 49 -17 109
-35 134 -41 82 -19 206 -12 350 20 287 64 413 53 735 -63 55 -20 105 -36 110
-35 21 1 -235 92 -325 115 -169 44 -339 42 -530 -6 -41 -10 -100 -22 -130 -26
-53 -6 -54 -6 -35 11 15 13 16 15 3 12 -15 -5 -20 15 -6 28 8 9 -3 45 -13 45
-5 0 -9 12 -8 27 1 16 -8 64 -19 108 -34 134 -35 140 -33 154 2 8 -3 26 -11
39 -9 18 -10 26 -2 29 14 5 6 43 -8 43 -5 0 -8 10 -7 23 4 37 -12 97 -27 97
-7 0 -16 5 -20 12 -5 8 -2 9 10 5 13 -5 19 -1 23 12 5 19 57 46 138 71 72 22
152 71 209 126 63 62 172 212 236 327 62 110 138 198 222 257 39 27 68 50 64
50 -4 0 -33 -18 -65 -39 -76 -52 -158 -142 -216 -238 -194 -319 -294 -420
-475 -478 -30 -10 -73 -27 -95 -38 -44 -21 -138 -87 -143 -99 -2 -5 -9 -5 -14
-2 -6 4 -8 3 -5 -3 8 -13 -47 -66 -58 -56 -4 5 -6 1 -3 -7 2 -8 -6 -24 -19
-36 -14 -13 -24 -25 -23 -29 1 -4 -2 -10 -6 -13 -4 -4 -4 -2 0 5 14 25 -12 21
-34 -5 -13 -15 -30 -35 -38 -44 -12 -14 -12 -20 -2 -33 10 -12 16 -13 29 -3
14 12 14 11 2 -4 -10 -14 -17 -15 -33 -7 -15 8 -19 8 -14 0 4 -6 3 -11 -2 -11
-5 0 -8 -12 -5 -27 2 -22 2 -24 -5 -9 -8 18 -9 18 -15 2 -4 -11 -13 -16 -22
-13 -11 5 -12 1 -5 -18 9 -23 8 -24 -16 -15 -14 6 -23 6 -20 1 4 -5 3 -11 -1
-14 -5 -2 -1 -2 7 0 10 2 8 -2 -4 -12 -13 -9 -22 -11 -26 -5 -4 6 -15 0 -27
-14 -12 -13 -18 -28 -15 -32 4 -5 -1 -2 -11 6 -16 11 -18 11 -15 -1 2 -11 -15
-14 -92 -14 -77 1 -103 5 -136 22 -85 45 -160 163 -171 269 -9 85 46 185 134
245 103 71 224 85 438 49 223 -37 305 -26 391 53 66 60 89 99 144 237 89 225
154 292 322 334 37 9 96 19 132 23 101 9 78 23 -36 23 -281 0 -387 -61 -539
-307 -130 -210 -203 -260 -349 -234 -123 22 -160 65 -160 185 0 76 33 176 75
232 73 95 154 120 430 134 208 10 240 17 375 85 41 21 104 56 140 78 71 45
270 187 270 193 0 10 -20 0 -80 -42z m-70 -58 c0 -11 -202 -133 -283 -171
-123 -58 -161 -66 -372 -74 -189 -7 -227 -5 -203 11 9 7 8 9 -7 5 -17 -3 -20
2 -21 35 -1 29 2 38 15 38 9 0 88 -7 176 -15 185 -16 260 -10 387 32 64 21
194 81 306 142 1 0 2 -1 2 -3z m-140 -291 c-92 -18 -173 -49 -214 -80 -48 -36
-106 -126 -145 -222 -59 -143 -103 -226 -145 -268 -41 -40 -86 -63 -86 -43 0
5 -4 7 -8 4 -4 -3 -8 5 -9 17 -1 73 -2 74 -28 72 -14 -2 -23 1 -20 5 3 5 13 6
22 3 12 -5 15 -2 10 10 -4 10 -2 16 5 14 6 -1 18 10 27 24 9 14 32 50 52 80
20 30 57 89 83 131 120 198 235 265 451 266 l70 0 -65 -13z m-1424 -487 c4 -6
3 -8 -3 -5 -6 4 -17 -1 -24 -10 -12 -15 -12 -16 6 -9 15 5 17 4 8 -5 -20 -20
-37 0 -17 22 20 22 21 22 30 7z m1187 -1077 c30 -16 83 -51 118 -78 106 -83
189 -133 261 -154 66 -20 70 -20 149 -4 45 9 104 25 130 35 78 29 57 12 -43
-35 -194 -91 -304 -84 -510 32 -102 57 -183 92 -223 95 -13 1 -23 5 -23 8 0 3
-1 7 -2 10 -1 3 -4 16 -5 30 -1 14 -5 32 -9 41 -11 25 20 49 64 49 23 0 60
-12 93 -29z"/>
<path d="M4410 3271 c0 -5 7 -12 16 -15 14 -5 15 -4 4 9 -14 17 -20 19 -20 6z"/>
<path d="M4426 3232 c-2 -4 4 -8 14 -8 10 0 16 4 14 8 -3 4 -9 8 -14 8 -5 0
-11 -4 -14 -8z"/>
<path d="M6283 4064 c-64 -67 -165 -118 -290 -144 -48 -10 -76 -19 -62 -19 41
-1 173 35 231 65 63 31 129 83 158 124 30 42 23 37 -37 -26z"/>
<path d="M6135 4010 c-13 -6 -15 -9 -5 -9 8 0 22 4 30 9 18 12 2 12 -25 0z"/>
<path d="M6088 3993 c7 -3 16 -2 19 1 4 3 -2 6 -13 5 -11 0 -14 -3 -6 -6z"/>
<path d="M6023 3983 c9 -2 23 -2 30 0 6 3 -1 5 -18 5 -16 0 -22 -2 -12 -5z"/>
<path d="M5702 3973 c48 -2 129 -2 180 0 51 1 12 3 -87 3 -99 0 -141 -2 -93
-3z"/>
<path d="M5543 3963 c9 -2 25 -2 35 0 9 3 1 5 -18 5 -19 0 -27 -2 -17 -5z"/>
<path d="M5488 3953 c6 -2 18 -2 25 0 6 3 1 5 -13 5 -14 0 -19 -2 -12 -5z"/>
<path d="M5448 3943 c7 -3 16 -2 19 1 4 3 -2 6 -13 5 -11 0 -14 -3 -6 -6z"/>
<path d="M7701 3896 c-24 -30 -76 -87 -117 -126 -76 -71 -93 -95 -29 -39 19
17 35 26 35 21 0 -6 -24 -32 -52 -58 -29 -26 -39 -37 -22 -26 17 12 46 38 65
59 58 64 172 214 167 219 -3 2 -24 -20 -47 -50z m-71 -99 c0 -2 -10 -12 -22
-23 l-23 -19 19 23 c18 21 26 27 26 19z"/>
<path d="M5375 3921 c-22 -11 -35 -19 -30 -19 14 -1 93 36 80 37 -5 0 -28 -8
-50 -18z"/>
<path d="M5725 3888 c-124 -12 -242 -43 -290 -76 -48 -33 -96 -119 -94 -171 1
-34 2 -34 9 10 25 148 124 204 410 229 69 6 130 13 135 15 18 6 -77 3 -170 -7z"/>
<path d="M6228 3883 c12 -2 32 -2 45 0 12 2 2 4 -23 4 -25 0 -35 -2 -22 -4z"/>
<path d="M6145 3863 c-36 -19 -99 -77 -127 -118 -12 -16 2 -5 30 27 29 31 75
68 104 82 29 14 45 26 37 26 -7 -1 -27 -8 -44 -17z"/>
<path d="M6308 3873 c6 -2 18 -2 25 0 6 3 1 5 -13 5 -14 0 -19 -2 -12 -5z"/>
<path d="M6380 3855 c46 -18 64 -17 25 0 -16 8 -37 14 -45 14 -8 0 1 -7 20
-14z"/>
<path d="M6307 3823 c18 -2 50 -2 70 0 21 2 7 4 -32 4 -38 0 -55 -2 -38 -4z"/>
<path d="M6445 3821 c-16 -7 -13 -9 20 -15 22 -4 52 -14 68 -23 16 -8 31 -12
34 -9 4 4 -91 57 -99 55 -2 0 -12 -4 -23 -8z"/>
<path d="M6207 3793 c-53 -40 -106 -107 -222 -283 -161 -244 -239 -302 -415
-308 -64 -2 -134 3 -216 17 -230 40 -325 25 -439 -67 -117 -94 -161 -241 -106
-355 28 -58 77 -102 161 -141 58 -28 74 -31 155 -30 150 1 201 34 350 228 85
111 158 167 315 243 74 36 151 72 170 80 28 11 30 12 7 8 -55 -11 -312 -144
-372 -192 -33 -27 -103 -101 -155 -166 -131 -162 -177 -189 -319 -190 -186 -1
-321 114 -321 272 0 86 30 150 99 214 106 99 219 125 406 93 183 -31 245 -36
314 -25 145 22 233 97 386 329 110 168 192 265 240 286 16 7 23 13 14 14 -8 0
-32 -12 -52 -27z"/>
<path d="M6853 3763 c20 -2 54 -2 75 0 20 2 3 4 -38 4 -41 0 -58 -2 -37 -4z"/>
<path d="M6730 3750 c-17 -6 -9 -7 25 -3 28 3 52 7 54 9 8 7 -54 2 -79 -6z"/>
<path d="M6988 3753 c6 -2 18 -2 25 0 6 3 1 5 -13 5 -14 0 -19 -2 -12 -5z"/>
<path d="M7038 3743 c6 -2 18 -2 25 0 6 3 1 5 -13 5 -14 0 -19 -2 -12 -5z"/>
<path d="M7125 3724 c28 -7 57 -13 65 -13 8 0 -7 7 -35 15 -27 7 -57 13 -65
13 -8 0 8 -7 35 -15z"/>
<path d="M6640 3720 c-8 -5 -10 -10 -5 -10 6 0 17 5 25 10 8 5 11 10 5 10 -5
0 -17 -5 -25 -10z"/>
<path d="M6532 3660 c-49 -34 -108 -92 -185 -183 -139 -161 -212 -230 -272
-253 -25 -9 -44 -19 -41 -21 7 -7 75 25 121 58 24 17 102 99 174 183 122 142
179 195 261 245 19 11 30 21 24 21 -6 0 -43 -23 -82 -50z"/>
<path d="M7230 3700 c14 -4 36 -8 50 -8 22 0 22 1 -5 8 -16 4 -39 8 -50 8 -16
0 -15 -2 5 -8z"/>
<path d="M6855 3681 c-116 -43 -212 -117 -250 -192 -44 -85 -30 -196 33 -263
30 -32 116 -76 147 -75 11 0 2 6 -20 13 -61 19 -100 42 -128 76 -43 51 -60
145 -36 207 6 15 10 30 9 32 -1 2 5 8 14 13 9 5 15 12 12 16 -2 4 6 16 17 27
11 11 16 13 12 5 -8 -13 -6 -13 8 -1 9 7 14 18 10 24 -4 6 0 8 10 4 12 -4 14
-2 10 10 -4 10 -2 14 4 10 6 -4 13 -1 16 7 3 8 41 32 83 53 72 35 84 38 163
38 47 0 106 -3 131 -7 l45 -7 -50 14 c-73 19 -181 18 -240 -4z"/>
<path d="M7395 3690 l-90 -6 85 -2 c47 -1 92 3 100 8 8 5 11 9 5 8 -5 -1 -50
-5 -100 -8z"/>
<path d="M7158 3663 c7 -3 16 -2 19 1 4 3 -2 6 -13 5 -11 0 -14 -3 -6 -6z"/>
<path d="M7235 3645 c53 -14 198 -18 227 -7 10 4 -29 7 -85 7 -56 0 -122 3
-147 7 l-45 7 50 -14z"/>
<path d="M5944 3638 c-4 -7 -14 -24 -22 -38 -14 -24 -13 -24 3 -5 20 24 37 55
31 55 -3 0 -8 -6 -12 -12z"/>
<path d="M7633 3563 c15 -2 37 -2 50 0 12 2 0 4 -28 4 -27 0 -38 -2 -22 -4z"/>
<path d="M7848 3563 c17 -2 47 -2 65 0 17 2 3 4 -33 4 -36 0 -50 -2 -32 -4z"/>
<path d="M5341 3523 c-1 -36 5 -49 35 -82 36 -40 114 -86 135 -79 7 2 -6 9
-28 16 -22 7 -60 29 -84 50 -36 32 -44 46 -50 88 l-6 49 -2 -42z"/>
<path d="M7496 3535 c-78 -32 -139 -75 -256 -180 -52 -47 -116 -100 -142 -117
-53 -35 -63 -47 -20 -24 32 18 84 60 212 173 100 89 177 135 261 157 31 9 43
15 29 15 -14 0 -52 -10 -84 -24z"/>
<path d="M7968 3553 c12 -2 30 -2 40 0 9 3 -1 5 -23 4 -22 0 -30 -2 -17 -4z"/>
<path d="M8043 3543 c9 -2 25 -2 35 0 9 3 1 5 -18 5 -19 0 -27 -2 -17 -5z"/>
<path d="M5840 3483 c-56 -71 -111 -111 -170 -122 -35 -7 -39 -9 -16 -10 46
-2 111 36 166 96 43 47 77 93 68 93 -2 0 -23 -26 -48 -57z"/>
<path d="M7848 3533 c23 -2 61 -2 85 0 23 2 4 4 -43 4 -47 0 -66 -2 -42 -4z"/>
<path d="M8060 3531 c-36 -5 -24 -8 67 -14 62 -4 120 -10 130 -14 12 -4 15 -3
8 4 -9 10 -130 35 -151 31 -5 0 -29 -4 -54 -7z"/>
<path d="M7713 3523 c15 -2 37 -2 50 0 12 2 0 4 -28 4 -27 0 -38 -2 -22 -4z"/>
<path d="M7643 3513 c9 -2 23 -2 30 0 6 3 -1 5 -18 5 -16 0 -22 -2 -12 -5z"/>
<path d="M7598 3503 c7 -3 16 -2 19 1 4 3 -2 6 -13 5 -11 0 -14 -3 -6 -6z"/>
<path d="M7496 3468 c-76 -42 -135 -96 -258 -235 -114 -129 -206 -200 -306
-235 -58 -20 -86 -23 -202 -22 -131 1 -140 2 -293 48 -86 25 -178 49 -205 51
-42 5 -40 4 16 -9 35 -8 127 -34 205 -56 292 -86 494 -61 660 79 30 25 99 97
152 159 109 127 173 182 260 223 33 16 53 29 45 29 -8 0 -41 -15 -74 -32z"/>
<path d="M5543 3353 c9 -2 25 -2 35 0 9 3 1 5 -18 5 -19 0 -27 -2 -17 -5z"/>
<path d="M1942 3259 c-601 -81 -1105 -521 -1277 -1115 -82 -284 -76 -643 16
-918 273 -818 1127 -1258 1932 -995 461 151 828 517 982 983 178 535 60 1113
-312 1539 -215 245 -513 418 -841 487 -114 24 -385 35 -500 19z m508 -107
c503 -118 902 -481 1065 -967 57 -169 69 -253 70 -470 0 -174 -3 -214 -23
-304 -134 -599 -576 -1034 -1167 -1148 -125 -24 -387 -24 -510 0 -252 50 -454
143 -652 302 -261 209 -450 525 -520 871 -25 126 -25 434 1 554 47 218 134
422 253 588 133 185 364 378 565 471 111 50 251 95 348 111 41 6 82 13 90 15
8 2 101 2 205 0 144 -3 210 -8 275 -23z"/>
<path d="M1905 3135 c-426 -80 -768 -320 -989 -695 -331 -560 -234 -1293 232
-1756 202 -200 430 -322 720 -386 140 -31 404 -31 549 0 404 87 734 325 948
683 242 408 260 950 45 1380 -140 279 -396 530 -671 658 -95 44 -211 84 -314
107 -101 23 -415 28 -520 9z m523 -535 c245 -70 436 -230 556 -467 41 -81 30
-77 -15 7 -60 110 -142 210 -232 282 -32 26 -41 29 -49 17 -8 -11 -9 -10 -4 3
4 14 -7 25 -46 47 -29 17 -55 28 -60 25 -4 -3 -8 -1 -8 4 0 8 -48 26 -58 23
-1 -1 -15 5 -30 12 -107 54 -348 68 -497 29 -84 -23 -255 -103 -277 -130 -10
-12 -10 -14 0 -8 18 11 15 1 -5 -15 -11 -10 -14 -10 -9 -1 4 6 3 12 -3 12 -11
0 -26 -20 -26 -35 0 -5 -5 -10 -12 -10 -11 0 -113 -99 -113 -109 0 -2 42 -4
93 -3 l92 2 3 85 c3 81 10 100 39 101 5 0 16 7 25 16 9 8 22 12 29 7 8 -5 10
-3 4 6 -6 10 -4 12 8 7 9 -3 19 -2 22 3 4 6 28 10 55 10 39 0 52 4 60 20 6 11
15 18 21 14 5 -3 18 -3 27 1 22 9 218 15 204 6 -5 -3 -11 -15 -13 -26 -4 -18
-13 -20 -117 -23 l-112 -3 0 -108 c0 -121 -6 -135 -58 -125 -17 4 -65 3 -106
-1 l-75 -7 -3 -111 -3 -112 -117 -3 -117 -3 -3 -117 -3 -117 -77 -3 c-76 -3
-77 -3 -83 -32 -6 -29 1 -145 11 -182 5 -15 17 -18 74 -18 l69 0 3 118 3 117
117 3 117 3 3 117 3 117 118 3 117 3 0 114 c0 63 3 115 8 115 4 1 52 3 107 5
55 2 103 4 107 5 4 0 9 51 10 113 l3 112 108 5 c60 3 115 1 123 -3 11 -6 14
-33 14 -112 0 -57 -3 -111 -6 -120 -6 -14 -23 -16 -118 -14 l-111 2 -5 -114
-5 -114 -112 -3 -112 -3 -3 -117 -3 -117 -117 -3 -117 -3 -3 -117 -3 -117
-117 -3 -118 -3 0 -103 c0 -122 -4 -136 -36 -136 -30 0 -30 -4 -1 -49 l22 -36
3 30 c7 79 0 75 127 75 l114 0 3 113 3 112 115 5 115 5 5 115 5 115 112 3 112
3 3 117 3 117 118 3 117 3 0 107 c0 71 4 112 12 120 8 8 50 12 121 12 l109 0
-4 49 c-3 48 -3 48 18 32 12 -9 20 -19 17 -24 -2 -4 0 -6 5 -5 11 3 56 -43 59
-61 2 -6 -5 -10 -15 -9 -9 1 -29 0 -44 0 l-27 -2 -3 -112 -3 -113 -117 -3
-117 -3 -3 -117 -3 -117 -117 -3 -117 -3 -3 -117 -3 -117 -112 -3 -112 -3 -3
-112 -3 -112 112 3 112 3 3 112 3 112 117 3 117 3 3 117 3 117 117 3 117 3 3
117 3 117 113 3 c75 2 116 -1 125 -9 9 -8 11 -41 7 -123 l-5 -111 -117 -3
-117 -3 -3 -117 -3 -117 -117 -3 -118 -3 0 -103 c0 -58 -3 -111 -6 -120 -5
-13 -25 -16 -120 -16 l-113 0 -3 -112 -3 -113 -112 -3 -113 -3 0 -90 0 -90
-27 5 c-16 2 -28 5 -28 6 0 1 -13 4 -30 6 -16 3 -32 10 -36 16 -3 5 -9 9 -12
9 -4 0 -29 10 -57 22 -53 23 -64 41 -58 93 l3 29 118 3 117 3 0 109 0 110
-115 0 -114 0 -3 -112 -3 -113 -61 0 -61 0 21 -26 c54 -65 188 -144 316 -184
149 -47 385 -44 508 7 15 6 29 12 32 13 3 1 13 5 23 10 10 4 20 5 23 2 8 -8
-115 -53 -193 -71 -100 -22 -251 -21 -345 3 -166 43 -289 111 -411 230 -282
273 -355 692 -182 1048 46 95 132 212 202 274 122 110 284 189 451 219 80 15
288 4 370 -20z m-643 -20 c-251 -125 -439 -370 -501 -653 -22 -99 -22 -299 0
-402 39 -179 122 -330 256 -467 95 -97 86 -105 -16 -15 -137 123 -246 344
-275 563 -42 316 94 667 338 869 74 61 118 88 203 122 85 34 83 27 -5 -17z
m820 -140 c3 -6 -1 -7 -9 -4 -18 7 -21 14 -7 14 6 0 13 -4 16 -10z m46 -37
c13 -16 12 -17 -3 -4 -17 13 -22 21 -14 21 2 0 10 -8 17 -17z m130 -50 c13
-16 12 -17 -3 -4 -17 13 -22 21 -14 21 2 0 10 -8 17 -17z m-1451 -152 c-5 -11
-15 -23 -21 -27 -6 -3 -3 5 6 20 20 30 30 35 15 7z m1588 -26 c-3 -3 -9 2 -12
12 -6 14 -5 15 5 6 7 -7 10 -15 7 -18z m-1627 -43 c-6 -11 -7 -22 -4 -26 3 -3
1 -6 -5 -6 -7 0 -12 -9 -12 -19 0 -11 -4 -22 -10 -26 -5 -3 -7 -12 -3 -20 3
-8 1 -15 -4 -15 -9 0 -11 -7 -14 -47 -1 -10 -6 -24 -11 -30 -6 -7 -8 -20 -4
-28 3 -8 2 -15 -3 -15 -5 0 -7 -18 -5 -40 2 -22 -1 -40 -6 -40 -5 0 -8 -26 -6
-57 1 -32 -1 -69 -6 -83 -15 -46 1 214 18 275 18 70 74 208 81 201 3 -2 0 -13
-6 -24z m1727 -207 c-3 -3 -9 2 -12 12 -6 14 -5 15 5 6 7 -7 10 -15 7 -18z
m39 -27 c-3 -8 -6 -5 -6 6 -1 11 2 17 5 13 3 -3 4 -12 1 -19z m-73 -145 c-1
-43 -6 -106 -9 -139 -6 -55 -8 -61 -26 -57 -19 5 -20 1 -18 -58 0 -35 -4 -76
-10 -91 -6 -16 -8 -28 -4 -28 3 0 -2 -9 -12 -20 -10 -11 -14 -20 -9 -20 5 0 2
-5 -6 -10 -8 -5 -57 -10 -108 -10 l-93 0 3 -114 3 -114 -115 -1 c-63 -1 -118
-5 -122 -9 -4 -4 -8 -38 -10 -77 -2 -38 -6 -68 -9 -65 -3 3 -13 -1 -22 -9 -10
-7 -17 -11 -17 -8 0 3 -12 0 -26 -8 -15 -7 -33 -11 -40 -8 -8 3 -20 0 -28 -6
-7 -6 -21 -9 -30 -5 -9 3 -24 3 -33 -1 -42 -18 -43 -17 -43 80 0 51 3 100 6
109 5 13 25 16 120 16 l114 0 0 104 c0 57 3 111 6 120 5 13 25 16 120 16 l113
0 3 113 3 112 115 5 115 5 5 115 5 115 28 3 c15 2 27 8 27 13 0 5 2 9 4 9 2 0
2 -35 0 -77z m53 -55 c-3 -8 -6 -5 -6 6 -1 11 2 17 5 13 3 -3 4 -12 1 -19z
m-1817 -77 c0 -11 -4 -23 -10 -26 -6 -4 -10 5 -10 19 0 14 5 26 10 26 6 0 10
-9 10 -19z m1804 -65 c-3 -15 -8 -25 -11 -23 -2 3 -1 17 3 31 3 15 8 25 11 23
2 -3 1 -17 -3 -31z m-84 -245 c-5 -11 -15 -23 -21 -27 -6 -3 -3 5 6 20 20 30
30 35 15 7z m-67 -16 c-3 -9 -8 -14 -10 -11 -3 3 -2 9 2 15 9 16 15 13 8 -4z
m-13 -29 c0 -2 -8 -10 -17 -17 -16 -13 -17 -12 -4 4 13 16 21 21 21 13z m-100
-120 c0 -2 -8 -10 -17 -17 -16 -13 -17 -12 -4 4 13 16 21 21 21 13z m-51 -119
c-2 -1 -15 -11 -29 -22 l-25 -20 19 23 c11 12 24 22 29 22 6 0 8 -1 6 -3z
m-562 -143 c-3 -3 -12 -4 -19 -1 -8 3 -5 6 6 6 11 1 17 -2 13 -5z"/>
<path d="M1448 2158 c-20 -35 -39 -73 -43 -85 -6 -22 -3 -23 39 -23 l46 0 0
85 c0 47 -1 85 -3 85 -2 0 -19 -28 -39 -62z"/>
<path d="M6990 3180 c-8 -5 -10 -10 -5 -10 6 0 17 5 25 10 8 5 11 10 5 10 -5
0 -17 -5 -25 -10z"/>
<path d="M6910 3160 c-34 -7 -34 -7 -5 -8 17 0 39 3 50 8 24 10 4 10 -45 0z"/>
<path d="M6838 3143 c7 -3 16 -2 19 1 4 3 -2 6 -13 5 -11 0 -14 -3 -6 -6z"/>
<path d="M6062 3079 c-103 -20 -231 -104 -277 -183 -16 -27 -27 -64 -30 -97
l-4 -54 10 54 c5 30 20 73 33 95 50 86 179 161 310 181 49 8 65 13 41 13 -22
0 -59 -4 -83 -9z"/>
<path d="M4467 3065 c-4 -8 -3 -16 1 -19 4 -3 9 4 9 15 2 23 -3 25 -10 4z"/>
<path d="M6655 2746 c-33 -13 -122 -53 -197 -89 -207 -101 -274 -122 -389
-122 -90 0 -99 2 -170 37 -80 40 -113 74 -129 135 l-10 38 4 -37 c6 -48 30
-83 80 -117 72 -49 132 -66 231 -66 110 1 181 23 394 126 194 94 213 101 306
109 l80 7 -70 1 c-51 1 -86 -5 -130 -22z"/>
<path d="M6889 2744 c45 -19 103 -55 98 -60 -2 -3 -28 7 -58 21 -30 14 -63 25
-74 24 -11 0 -2 -6 20 -13 62 -20 119 -52 180 -101 74 -61 70 -41 -6 29 -62
58 -152 116 -179 116 -8 -1 0 -7 19 -16z m141 -90 c0 -2 -9 0 -20 6 -11 6 -20
13 -20 16 0 2 9 0 20 -6 11 -6 20 -13 20 -16z"/>
<path d="M6768 2733 c12 -2 32 -2 45 0 12 2 2 4 -23 4 -25 0 -35 -2 -22 -4z"/>
<path d="M6708 2723 c6 -2 18 -2 25 0 6 3 1 5 -13 5 -14 0 -19 -2 -12 -5z"/>
<path d="M6633 2700 c-67 -30 -120 -70 -259 -196 -149 -134 -159 -142 -228
-166 -28 -9 -42 -17 -31 -18 42 0 124 51 218 136 161 145 238 206 302 235 33
16 56 28 50 28 -5 0 -29 -8 -52 -19z"/>
<path d="M5645 2325 c22 -8 49 -13 60 -13 11 0 -2 6 -30 14 -63 17 -84 16 -30
-1z"/>
<path d="M6058 2313 c6 -2 18 -2 25 0 6 3 1 5 -13 5 -14 0 -19 -2 -12 -5z"/>
<path d="M5743 2303 c9 -2 25 -2 35 0 9 3 1 5 -18 5 -19 0 -27 -2 -17 -5z"/>
<path d="M5993 2303 c9 -2 25 -2 35 0 9 3 1 5 -18 5 -19 0 -27 -2 -17 -5z"/>
<path d="M5838 2293 c23 -2 61 -2 85 0 23 2 4 4 -43 4 -47 0 -66 -2 -42 -4z"/>
<path d="M4385 2221 c-3 -5 -2 -12 3 -15 5 -3 9 1 9 9 0 17 -3 19 -12 6z"/>
<path d="M5600 1880 c-67 -5 -49 -6 85 -7 114 0 155 2 125 8 -50 8 -84 8 -210
-1z"/>
<path d="M4740 1646 c0 -2 9 -6 20 -9 11 -3 18 -1 14 4 -5 9 -34 13 -34 5z"/>
</g>
</svg>
